<mxfile host="app.diagrams.net" modified="2023-11-24T09:54:03.226Z" agent="Mozilla/5.0 (Windows NT 10.0; Win64; x64) AppleWebKit/537.36 (KHTML, like Gecko) Chrome/119.0.0.0 Safari/537.36" etag="6vfoxC6HdbPCY_NZG1pH" version="22.1.3" type="github">
  <diagram name="第 1 页" id="l_GkcDuePBD5FiNpogjj">
    <mxGraphModel dx="1709" dy="935" grid="1" gridSize="10" guides="1" tooltips="1" connect="1" arrows="1" fold="1" page="1" pageScale="1" pageWidth="827" pageHeight="1169" math="0" shadow="0">
      <root>
        <mxCell id="0" />
        <mxCell id="1" parent="0" />
        <mxCell id="BmWYOrbidce_TWZ4z-0n-1" value="CMPluginAPI&lt;br&gt;DLL" style="rounded=0;whiteSpace=wrap;html=1;" vertex="1" parent="1">
          <mxGeometry x="240" y="290" width="120" height="60" as="geometry" />
        </mxCell>
        <mxCell id="BmWYOrbidce_TWZ4z-0n-2" value="CMVRPN" style="rounded=0;whiteSpace=wrap;html=1;" vertex="1" parent="1">
          <mxGeometry x="55" y="210" width="120" height="60" as="geometry" />
        </mxCell>
        <mxCell id="BmWYOrbidce_TWZ4z-0n-3" value="CMLiveStream" style="rounded=0;whiteSpace=wrap;html=1;" vertex="1" parent="1">
          <mxGeometry x="55" y="370" width="120" height="60" as="geometry" />
        </mxCell>
        <mxCell id="BmWYOrbidce_TWZ4z-0n-4" value="CMCommonInterface" style="rounded=0;whiteSpace=wrap;html=1;" vertex="1" parent="1">
          <mxGeometry x="50" y="290" width="130" height="60" as="geometry" />
        </mxCell>
      </root>
    </mxGraphModel>
  </diagram>
</mxfile>
